<svg width="18" height="16" viewBox="0 0 18 16" fill="none" xmlns="http://www.w3.org/2000/svg">
<path d="M4 5H14V11H4V5ZM16.5 8C16.5 8.82844 17.1716 9.5 18 9.5V12.5C18 13.3284 17.3284 14 16.5 14H1.5C0.671562 14 0 13.3284 0 12.5V9.5C0.828438 9.5 1.5 8.82844 1.5 8C1.5 7.17156 0.828438 6.5 0 6.5V3.5C0 2.67156 0.671562 2 1.5 2H16.5C17.3284 2 18 2.67156 18 3.5V6.5C17.1716 6.5 16.5 7.17156 16.5 8ZM15 4.75C15 4.33578 14.6642 4 14.25 4H3.75C3.33578 4 3 4.33578 3 4.75V11.25C3 11.6642 3.33578 12 3.75 12H14.25C14.6642 12 15 11.6642 15 11.25V4.75Z" fill="#CCCCCC"/>
</svg>
