<svg width="55" height="27" viewBox="0 0 55 27" fill="none" xmlns="http://www.w3.org/2000/svg">
<path d="M2.86405 20H0.261124V1.38517H6.22944C7.12337 1.38517 7.97348 1.48157 8.77978 1.67438C9.58607 1.84966 10.2872 2.13888 10.8831 2.54202C11.4966 2.94517 11.9787 3.47977 12.3292 4.14584C12.6798 4.79438 12.8551 5.59191 12.8551 6.53843C12.8551 7.90562 12.4344 9.00989 11.593 9.85124C10.7517 10.6926 9.66494 11.2272 8.33281 11.4551L13.5387 20H10.3836L5.65101 11.718H2.86405V20ZM2.86405 9.53573H5.86135C6.47483 9.53573 7.0445 9.48315 7.57034 9.37798C8.09618 9.27281 8.55191 9.10629 8.93753 8.87843C9.34067 8.63303 9.65618 8.32629 9.88405 7.9582C10.1119 7.57258 10.2258 7.09933 10.2258 6.53843C10.2258 5.97753 10.1119 5.51303 9.88405 5.14494C9.65618 4.75933 9.34944 4.45258 8.96382 4.22472C8.59573 3.99685 8.15753 3.8391 7.64921 3.75146C7.1409 3.64629 6.60629 3.59371 6.04539 3.59371H2.86405V9.53573ZM18.8583 17.3182H18.9109L22.3552 7.53753H24.9844L18.9372 22.9447C18.7269 23.4706 18.499 23.9351 18.2536 24.3382C18.0082 24.7589 17.719 25.1094 17.386 25.3899C17.0529 25.6879 16.6586 25.9157 16.2028 26.0735C15.7646 26.2312 15.2388 26.3101 14.6253 26.3101C14.3624 26.3101 14.0907 26.2926 13.8103 26.2575C13.5473 26.24 13.2756 26.1962 12.9952 26.1261L13.2318 23.9438C13.6525 24.084 14.0644 24.1542 14.4676 24.1542C15.1161 24.1542 15.5981 23.9701 15.9136 23.602C16.2291 23.2515 16.5183 22.7431 16.7813 22.0771L17.57 20L12.2327 7.53753H14.9934L18.8583 17.3182ZM27.8986 20H25.4271V0.123145H27.8986V20ZM39.3277 12.6645C39.3102 12.1737 39.2225 11.718 39.0648 11.2973C38.9245 10.8591 38.7054 10.4822 38.4075 10.1667C38.127 9.85124 37.7677 9.60584 37.3295 9.43056C36.9088 9.23775 36.4093 9.14135 35.8308 9.14135C35.305 9.14135 34.8054 9.23775 34.3322 9.43056C33.8765 9.60584 33.4733 9.85124 33.1227 10.1667C32.7897 10.4822 32.5093 10.8591 32.2814 11.2973C32.0711 11.718 31.9484 12.1737 31.9133 12.6645H39.3277ZM41.8254 13.6636C41.8254 13.8038 41.8254 13.944 41.8254 14.0843C41.8254 14.2245 41.8167 14.3647 41.7992 14.5049H31.9133C31.9308 15.0308 32.0448 15.5303 32.2551 16.0036C32.483 16.4593 32.7809 16.8625 33.149 17.213C33.5171 17.5461 33.9378 17.809 34.4111 18.0018C34.9018 18.1946 35.4189 18.291 35.9623 18.291C36.8036 18.291 37.5311 18.107 38.1445 17.7389C38.758 17.3708 39.2401 16.9238 39.5906 16.398L41.3259 17.7915C40.6598 18.6679 39.8711 19.3164 38.9596 19.7371C38.0657 20.1402 37.0666 20.3418 35.9623 20.3418C35.0158 20.3418 34.1394 20.184 33.3331 19.8685C32.5268 19.553 31.8344 19.1148 31.256 18.5539C30.6776 17.9755 30.2218 17.2831 29.8888 16.4769C29.5558 15.6706 29.3893 14.7766 29.3893 13.7951C29.3893 12.831 29.547 11.9458 29.8625 11.1396C30.1956 10.3157 30.6513 9.61461 31.2297 9.03618C31.8081 8.45775 32.4917 8.01079 33.2805 7.69528C34.0693 7.36225 34.9194 7.19573 35.8308 7.19573C36.7423 7.19573 37.5661 7.34472 38.3023 7.6427C39.056 7.94067 39.687 8.37011 40.1953 8.93101C40.7212 9.49191 41.1243 10.1755 41.4048 10.9818C41.6852 11.7706 41.8254 12.6645 41.8254 13.6636ZM52.3995 12.6645C52.3819 12.1737 52.2943 11.718 52.1365 11.2973C51.9963 10.8591 51.7772 10.4822 51.4792 10.1667C51.1988 9.85124 50.8395 9.60584 50.4013 9.43056C49.9806 9.23775 49.481 9.14135 48.9026 9.14135C48.3768 9.14135 47.8772 9.23775 47.4039 9.43056C46.9482 9.60584 46.5451 9.85124 46.1945 10.1667C45.8615 10.4822 45.581 10.8591 45.3532 11.2973C45.1428 11.718 45.0201 12.1737 44.9851 12.6645H52.3995ZM54.8972 13.6636C54.8972 13.8038 54.8972 13.944 54.8972 14.0843C54.8972 14.2245 54.8884 14.3647 54.8709 14.5049H44.9851C45.0026 15.0308 45.1165 15.5303 45.3269 16.0036C45.5547 16.4593 45.8527 16.8625 46.2208 17.213C46.5889 17.5461 47.0096 17.809 47.4828 18.0018C47.9736 18.1946 48.4907 18.291 49.0341 18.291C49.8754 18.291 50.6028 18.107 51.2163 17.7389C51.8298 17.3708 52.3118 16.9238 52.6624 16.398L54.3977 17.7915C53.7316 18.6679 52.9428 19.3164 52.0314 19.7371C51.1374 20.1402 50.1383 20.3418 49.0341 20.3418C48.0875 20.3418 47.2111 20.184 46.4048 19.8685C45.5986 19.553 44.9062 19.1148 44.3278 18.5539C43.7493 17.9755 43.2936 17.2831 42.9606 16.4769C42.6275 15.6706 42.461 14.7766 42.461 13.7951C42.461 12.831 42.6188 11.9458 42.9343 11.1396C43.2673 10.3157 43.723 9.61461 44.3015 9.03618C44.8799 8.45775 45.5635 8.01079 46.3523 7.69528C47.141 7.36225 47.9911 7.19573 48.9026 7.19573C49.8141 7.19573 50.6379 7.34472 51.3741 7.6427C52.1278 7.94067 52.7588 8.37011 53.2671 8.93101C53.7929 9.49191 54.1961 10.1755 54.4765 10.9818C54.757 11.7706 54.8972 12.6645 54.8972 13.6636Z" fill="#1F2C36"/>
</svg>
